<svg id="splitsvg" xmlns="http://www.w3.org/2000/svg" xmlns:xlink="http://www.w3.org/1999/xlink" width="440" height="933" version="1.1"><g id="svgg"><path id="path0" d="M185.965 5.424 C 175.946 10.025,173.249 12.411,163.750 25.067 C 141.453 54.778,137.201 66.218,132.518 109.102 C 131.078 122.286,127.543 141.242,124.400 152.632 C 116.550 181.075,116.103 194.737,123.020 194.737 C 123.868 194.737,124.561 195.966,124.561 197.467 C 124.561 202.900,112.584 210.954,82.485 225.762 C 29.958 251.603,29.314 252.684,31.811 310.808 C 33.499 350.105,32.097 361.016,18.509 414.345 C 12.627 437.432,9.934 452.451,7.973 473.117 C 6.524 488.385,3.988 512.155,2.337 525.938 L -0.665 551.000 5.009 569.539 C 8.186 579.918,16.567 599.774,24.051 614.653 L 37.418 641.228 33.564 685.088 C 31.444 709.211,28.899 751.973,27.909 780.115 L 26.109 831.282 32.346 839.964 C 43.921 856.076,45.516 861.787,46.488 890.598 C 46.971 904.936,47.836 920.417,48.409 925.000 L 49.452 933.333 199.287 933.333 L 349.123 933.333 349.123 910.439 C 349.123 892.228,350.206 881.910,354.416 860.000 C 357.327 844.851,360.287 829.408,360.995 825.682 C 362.246 819.092,362.711 818.730,378.070 812.373 L 393.860 805.839 394.446 794.586 C 394.768 788.397,394.168 741.096,393.113 689.474 L 391.195 595.614 395.324 577.495 C 401.130 552.019,399.353 530.546,389.054 501.754 C 379.779 475.824,378.293 448.177,384.015 407.975 C 399.773 297.267,388.586 255.912,334.735 225.797 C 328.281 222.188,320.674 217.277,317.830 214.884 L 312.659 210.533 318.570 199.565 C 326.822 184.254,324.954 176.847,296.563 112.290 C 285.618 87.402,283.494 80.894,281.384 65.798 C 276.382 30.005,276.076 29.131,264.234 16.656 L 253.509 5.359 230.631 2.679 C 200.774 -0.817,199.364 -0.731,185.965 5.424" stroke="none" fill="#000000" fill-rule="evenodd" transform="translate(30,0)"></path></g></svg>